# xmcd
# Copyright (C) 1995-1998 Ti Kan
#
# Track frame offsets:
#       150
#       1101
#       4170
#       4743
#       9098
#       11841
#       14516
#       17450
#       20911
#       21511
#       21961
#       23311
#       24661
#       26758
#       27358
#       27808
#
# Disc length: 403 seconds
#
# Revision: 0
# Processed by: cddbd v1.5.2PL0 Copyright (c) Steve Scherf et al.
# Submitted via: CD-Import v1.0
#
DISCID=a3019110
DTITLE=Buchs - Buchs
DYEAR=1900
DGENRE=
TTITLE0=Delay
TTITLE1=Communicatio
TTITLE2=Nothing But
TTITLE3=Process
TTITLE4=Tha Bass
TTITLE5=Rasta
TTITLE6=Next Generatio
TTITLE7=London
TTITLE8=Low
TTITLE9=Low2
TTITLE10=Primetime
TTITLE11=Push
TTITLE12=The End
TTITLE13=Next Rec
TTITLE14=Twist Your Head
TTITLE15=Vienna
EXTD=
EXTT0=
EXTT1=
EXTT2=
EXTT3=
EXTT4=
EXTT5=
EXTT6=
EXTT7=
EXTT8=
EXTT9=
EXTT10=
EXTT11=
EXTT12=
EXTT13=
EXTT14=
EXTT15=
PLAYORDER=
